<svg width="15" height="15" viewBox="0 0 15 15" fill="none" xmlns="http://www.w3.org/2000/svg">
<path d="M14.125 9.71007L11.96 8.20658L13.0425 2.2373C13.127 1.76946 12.6685 1.31091 12.2006 1.39547L6.23134 2.47796L4.72785 0.312963C4.58061 0.111145 4.34126 -0.0122716 4.09534 0.000968481C3.84256 0.014176 3.62076 0.153845 3.49818 0.37226L0.0930799 6.51505C-0.0669586 6.79828 -0.0150849 7.15023 0.21419 7.37951L7.05842 14.2237C7.28769 14.453 7.63965 14.5049 7.92288 14.3448L14.0657 10.9397C14.2841 10.8172 14.4238 10.5954 14.437 10.3426C14.4468 10.0932 14.3302 9.85391 14.125 9.71007Z" fill="#FBBC05"/>
</svg>
