<svg width="160" height="49" viewBox="0 0 160 49" fill="none" xmlns="http://www.w3.org/2000/svg">
<path d="M58.5098 47.3147L58.9152 44.6059C58.9764 44.1965 58.6594 43.8284 58.2454 43.8284H1.08952C0.754849 43.8284 0.470368 44.0729 0.420024 44.4038L0.00784859 47.1126C-0.0545191 47.5225 0.262747 47.8917 0.677344 47.8917H57.8401C58.1754 47.8917 58.4602 47.6463 58.5098 47.3147Z" fill="#014CCC"/>
<path d="M142.674 27.1603L147.239 19.7634H146.372L143.136 6.24109H147.499L149.695 16.0361L155.272 6.24109H159.606L146.95 27.1603H142.674Z" fill="#014CCC"/>
<path d="M132.302 20.8036L135.104 5.02754C135.316 3.79473 135.692 2.81234 136.231 2.08036C136.79 1.34838 137.483 0.818661 138.312 0.491197C139.14 0.163732 140.074 0 141.114 0H142.906L142.299 3.43838H141.114C140.517 3.43838 140.065 3.56358 139.756 3.814C139.448 4.04515 139.246 4.44966 139.15 5.02754L136.347 20.8036H132.302ZM132.302 9.62167L132.88 6.24109H142.01L141.432 9.62167H132.302Z" fill="#014CCC"/>
<path d="M121.714 21.1503C120.365 21.1503 119.21 20.8807 118.246 20.3413C117.283 19.802 116.551 19.0411 116.05 18.0587C115.569 17.0763 115.367 15.9302 115.444 14.6203C115.482 13.4068 115.723 12.2799 116.166 11.2397C116.628 10.1803 117.254 9.25569 118.044 8.46592C118.853 7.65689 119.787 7.03086 120.847 6.58782C121.906 6.12551 123.081 5.89436 124.372 5.89436C125.701 5.89436 126.828 6.16404 127.752 6.70339C128.696 7.24275 129.399 7.98436 129.862 8.92822C130.324 9.85283 130.526 10.9219 130.468 12.1354C130.468 12.54 130.42 12.9541 130.324 13.3779C130.247 13.8017 130.16 14.1869 130.064 14.5336H118.275L118.709 12.0777H126.452C126.529 11.4613 126.462 10.9412 126.25 10.5174C126.038 10.0743 125.72 9.73725 125.296 9.5061C124.892 9.27495 124.41 9.15937 123.852 9.15937C123.197 9.15937 122.571 9.31348 121.974 9.62168C121.396 9.92988 120.895 10.3826 120.471 10.9797C120.047 11.5768 119.758 12.3377 119.604 13.2623L119.46 14.1002C119.325 14.8322 119.344 15.4775 119.518 16.0361C119.71 16.5947 120.038 17.0378 120.5 17.3652C120.962 17.6927 121.55 17.8564 122.263 17.8564C122.956 17.8564 123.553 17.712 124.054 17.423C124.555 17.1341 124.959 16.7585 125.268 16.2962H129.399C128.956 17.2208 128.35 18.0491 127.579 18.781C126.809 19.513 125.923 20.0909 124.921 20.5147C123.919 20.9385 122.85 21.1503 121.714 21.1503Z" fill="#014CCC"/>
<path d="M104.741 21.1503C103.393 21.1503 102.237 20.8807 101.274 20.3413C100.311 19.802 99.5786 19.0411 99.0778 18.0587C98.5962 17.0763 98.394 15.9302 98.471 14.6203C98.5095 13.4068 98.7503 12.2799 99.1934 11.2397C99.6557 10.1803 100.282 9.25569 101.071 8.46592C101.88 7.65689 102.815 7.03086 103.874 6.58782C104.934 6.12551 106.109 5.89436 107.399 5.89436C108.728 5.89436 109.855 6.16404 110.78 6.70339C111.724 7.24275 112.427 7.98436 112.889 8.92822C113.351 9.85283 113.554 10.9219 113.496 12.1354C113.496 12.54 113.448 12.9541 113.351 13.3779C113.274 13.8017 113.188 14.1869 113.091 14.5336H101.303L101.736 12.0777H109.48C109.557 11.4613 109.489 10.9412 109.277 10.5174C109.065 10.0743 108.748 9.73725 108.324 9.5061C107.919 9.27495 107.438 9.15937 106.879 9.15937C106.224 9.15937 105.598 9.31348 105.001 9.62168C104.423 9.92988 103.922 10.3826 103.499 10.9797C103.075 11.5768 102.786 12.3377 102.632 13.2623L102.487 14.1002C102.352 14.8322 102.372 15.4775 102.545 16.0361C102.738 16.5947 103.065 17.0378 103.527 17.3652C103.99 17.6927 104.577 17.8564 105.29 17.8564C105.983 17.8564 106.581 17.712 107.081 17.423C107.582 17.1341 107.987 16.7585 108.295 16.2962H112.427C111.984 17.2208 111.377 18.0491 110.606 18.781C109.836 19.513 108.95 20.0909 107.948 20.5147C106.947 20.9385 105.877 21.1503 104.741 21.1503Z" fill="#014CCC"/>
<path d="M71.1533 20.8036L73.696 6.24109H77.2499V8.20588C77.8085 7.51242 78.4731 6.95381 79.2436 6.53003C80.0334 6.10625 80.9195 5.89436 81.9019 5.89436C82.6146 5.89436 83.2502 5.99068 83.8089 6.1833C84.3675 6.37593 84.8394 6.66487 85.2247 7.05012C85.6292 7.41611 85.9374 7.87841 86.1493 8.43703C86.8042 7.64726 87.5843 7.03086 88.4897 6.58782C89.395 6.12551 90.3581 5.89436 91.3791 5.89436C92.6311 5.89436 93.6424 6.15441 94.4129 6.6745C95.2027 7.17533 95.742 7.91694 96.031 8.89933C96.3392 9.86246 96.3681 11.0471 96.1177 12.4533L94.6441 20.8036H90.5989L92.0147 12.8C92.2073 11.6828 92.1207 10.8256 91.7547 10.2284C91.3887 9.61205 90.7627 9.30384 89.8766 9.30384C89.318 9.30384 88.7979 9.43868 88.3163 9.70836C87.854 9.97804 87.4495 10.3633 87.1028 10.8641C86.7753 11.3649 86.5249 11.9717 86.3515 12.6844L84.9068 20.8036H80.8906L82.3064 12.8C82.499 11.6828 82.4123 10.8256 82.0463 10.2284C81.6803 9.61205 81.0447 9.30384 80.1393 9.30384C79.5614 9.30384 79.0221 9.45795 78.5213 9.76615C78.0397 10.0551 77.6256 10.4789 77.2788 11.0375C76.9321 11.5961 76.6913 12.2703 76.5565 13.0601L75.1985 20.8036H71.1533Z" fill="#014CCC"/>
<path d="M59.1895 21.1503C57.9374 21.1503 56.9358 20.8903 56.1845 20.3702C55.4526 19.8309 54.9614 19.0796 54.7109 18.1165C54.4605 17.1341 54.4509 15.9783 54.6821 14.6492L56.1556 6.24109H60.1719L58.785 14.2736C58.5924 15.3908 58.6598 16.248 58.9872 16.8452C59.334 17.4423 60.0274 17.7409 61.0676 17.7409C61.7033 17.7409 62.2908 17.606 62.8301 17.3363C63.3888 17.0474 63.8607 16.6333 64.2459 16.0939C64.6312 15.5353 64.8912 14.8707 65.0261 14.1002L66.413 6.24109H70.4581L67.9155 20.8036H64.3615L64.3904 18.521C63.8125 19.3108 63.0806 19.9464 62.1945 20.428C61.3277 20.9096 60.326 21.1503 59.1895 21.1503Z" fill="#014CCC"/>
<path d="M44.7988 21.1503C43.4119 21.1503 42.2561 20.9288 41.3315 20.4858C40.4069 20.0235 39.7231 19.4071 39.2801 18.6366C38.8563 17.8661 38.6829 16.9993 38.76 16.0361H42.7762C42.7762 16.4406 42.8629 16.797 43.0363 17.1052C43.2289 17.4134 43.5082 17.6638 43.8742 17.8564C44.2594 18.0298 44.7314 18.1165 45.29 18.1165C45.7908 18.1165 46.2146 18.0394 46.5613 17.8853C46.908 17.7312 47.1777 17.529 47.3704 17.2786C47.5822 17.0281 47.6978 16.7392 47.7171 16.4117C47.7363 16.1035 47.64 15.8531 47.4281 15.6605C47.2355 15.4486 46.9466 15.2849 46.5613 15.1693C46.1953 15.0345 45.7619 14.9189 45.2611 14.8226C44.5869 14.6685 43.932 14.4855 43.2963 14.2736C42.6799 14.0617 42.1309 13.8017 41.6494 13.4935C41.1871 13.166 40.8211 12.7807 40.5514 12.3377C40.301 11.8754 40.195 11.3264 40.2336 10.6908C40.2721 9.76615 40.5707 8.94749 41.1293 8.23477C41.7071 7.50279 42.4873 6.93454 43.4697 6.53003C44.4713 6.10625 45.6078 5.89436 46.8792 5.89436C48.6706 5.89436 50.0479 6.30851 51.011 7.1368C51.9934 7.94583 52.4653 9.03417 52.4268 10.4018H48.5839C48.5454 9.95877 48.3335 9.61205 47.9482 9.36163C47.563 9.11122 47.0525 8.98601 46.4169 8.98601C45.7619 8.98601 45.2322 9.12085 44.8277 9.39053C44.4232 9.64094 44.2113 9.95877 44.192 10.344C44.1728 10.6137 44.2691 10.8449 44.481 11.0375C44.6928 11.2301 44.9914 11.3938 45.3767 11.5287C45.7812 11.6635 46.282 11.7887 46.8792 11.9043C47.6497 12.0777 48.3431 12.2703 48.9595 12.4822C49.5952 12.6941 50.1249 12.9541 50.5487 13.2623C50.9917 13.5705 51.3192 13.9461 51.5311 14.3892C51.7622 14.8322 51.8585 15.3716 51.82 16.0072C51.7815 17.0474 51.4444 17.9624 50.8087 18.7522C50.1923 19.5227 49.364 20.1198 48.3239 20.5436C47.2837 20.9481 46.1087 21.1503 44.7988 21.1503Z" fill="#014CCC"/>
<path d="M28.7791 21.1503C27.4307 21.1503 26.2749 20.8807 25.3118 20.3413C24.3487 19.802 23.6167 19.0411 23.1159 18.0587C22.6343 17.0763 22.4321 15.9302 22.5091 14.6203C22.5476 13.4068 22.7884 12.2799 23.2315 11.2397C23.6938 10.1803 24.3198 9.25569 25.1096 8.46592C25.9186 7.65689 26.8528 7.03086 27.9123 6.58782C28.9717 6.12551 30.1467 5.89436 31.4373 5.89436C32.7664 5.89436 33.8933 6.16404 34.8179 6.70339C35.7618 7.24275 36.4649 7.98436 36.9272 8.92822C37.3895 9.85283 37.5917 10.9219 37.5339 12.1354C37.5339 12.54 37.4858 12.9541 37.3895 13.3779C37.3124 13.8017 37.2257 14.1869 37.1294 14.5336H25.3407L25.7741 12.0777H33.5177C33.5947 11.4613 33.5273 10.9412 33.3154 10.5174C33.1035 10.0743 32.7857 9.73725 32.3619 9.5061C31.9574 9.27495 31.4758 9.15937 30.9172 9.15937C30.2623 9.15937 29.6363 9.31348 29.0391 9.62168C28.4613 9.92988 27.9604 10.3826 27.5366 10.9797C27.1129 11.5768 26.8239 12.3377 26.6698 13.2623L26.5254 14.1002C26.3905 14.8322 26.4098 15.4775 26.5831 16.0361C26.7758 16.5947 27.1032 17.0378 27.5655 17.3652C28.0278 17.6927 28.6154 17.8564 29.3281 17.8564C30.0215 17.8564 30.6187 17.712 31.1195 17.423C31.6203 17.1341 32.0248 16.7585 32.333 16.2962H36.4649C36.0218 17.2208 35.4151 18.0491 34.6445 18.781C33.874 19.513 32.988 20.0909 31.9863 20.5147C30.9847 20.9385 29.9156 21.1503 28.7791 21.1503Z" fill="#014CCC"/>
<path d="M4.64551 20.8036L8.22835 0.577881H15.7986C17.2818 0.577881 18.4953 0.837926 19.4392 1.35802C20.3831 1.85884 21.0765 2.53304 21.5195 3.38059C21.9626 4.22814 22.1552 5.16238 22.0974 6.1833C22.0396 7.51242 21.6544 8.68744 20.9417 9.70836C20.2482 10.7293 19.2755 11.5287 18.0234 12.1066C16.7713 12.6652 15.317 12.9445 13.6604 12.9445H10.0776L8.69065 20.8036H4.64551ZM15.2785 20.8036L12.7069 11.9332H16.9543L19.7281 20.8036H15.2785ZM10.6265 9.9973H13.9782C15.1533 9.9973 16.0875 9.68909 16.7809 9.07269C17.4937 8.45629 17.8693 7.60873 17.9078 6.53003C17.9656 5.75952 17.7633 5.14312 17.301 4.68082C16.8387 4.19925 16.0875 3.95847 15.0473 3.95847H11.6667L10.6265 9.9973Z" fill="#014CCC"/>
<path d="M125.373 48.2384C123.986 48.2384 122.83 48.0169 121.906 47.5738C120.981 47.1115 120.297 46.4951 119.854 45.7246C119.431 44.9541 119.257 44.0873 119.334 43.1242H123.35C123.35 43.5287 123.437 43.885 123.61 44.1932C123.803 44.5014 124.082 44.7518 124.448 44.9445C124.834 45.1178 125.306 45.2045 125.864 45.2045C126.365 45.2045 126.789 45.1275 127.136 44.9734C127.482 44.8193 127.752 44.617 127.945 44.3666C128.156 44.1162 128.272 43.8272 128.291 43.4998C128.311 43.1916 128.214 42.9412 128.002 42.7485C127.81 42.5366 127.521 42.3729 127.136 42.2573C126.77 42.1225 126.336 42.0069 125.835 41.9106C125.161 41.7565 124.506 41.5735 123.871 41.3616C123.254 41.1497 122.705 40.8897 122.224 40.5815C121.761 40.254 121.395 39.8688 121.126 39.4257C120.875 38.9634 120.769 38.4145 120.808 37.7788C120.846 36.8542 121.145 36.0355 121.703 35.3228C122.281 34.5908 123.062 34.0226 124.044 33.6181C125.046 33.1943 126.182 32.9824 127.453 32.9824C129.245 32.9824 130.622 33.3965 131.585 34.2248C132.568 35.0339 133.04 36.1222 133.001 37.4898H129.158C129.12 37.0468 128.908 36.7001 128.522 36.4497C128.137 36.1993 127.627 36.074 126.991 36.074C126.336 36.074 125.806 36.2089 125.402 36.4786C124.997 36.729 124.786 37.0468 124.766 37.4321C124.747 37.7017 124.843 37.9329 125.055 38.1255C125.267 38.3181 125.566 38.4819 125.951 38.6167C126.355 38.7515 126.856 38.8768 127.453 38.9923C128.224 39.1657 128.917 39.3583 129.534 39.5702C130.169 39.7821 130.699 40.0421 131.123 40.3503C131.566 40.6585 131.893 41.0342 132.105 41.4772C132.336 41.9202 132.433 42.4596 132.394 43.0953C132.356 44.1354 132.019 45.0504 131.383 45.8402C130.767 46.6107 129.938 47.2078 128.898 47.6316C127.858 48.0361 126.683 48.2384 125.373 48.2384Z" fill="#014CCC"/>
<path d="M109.588 48.2384C108.876 48.2384 108.24 48.1421 107.681 47.9494C107.123 47.7568 106.641 47.4968 106.237 47.1693C105.852 46.8226 105.543 46.4469 105.312 46.0424L104.532 47.8916H100.949L104.619 27.088H108.664L107.248 35.1205C107.807 34.4849 108.491 33.9744 109.3 33.5892C110.128 33.1846 111.072 32.9824 112.131 32.9824C113.325 32.9824 114.366 33.281 115.252 33.8781C116.138 34.456 116.812 35.2457 117.274 36.2474C117.737 37.2298 117.929 38.3567 117.852 39.628C117.814 40.8223 117.573 41.9395 117.13 42.9797C116.687 44.0199 116.09 44.9348 115.338 45.7246C114.587 46.5144 113.72 47.1308 112.738 47.5738C111.775 48.0169 110.725 48.2384 109.588 48.2384ZM109.271 44.7133C110.08 44.7133 110.812 44.5207 111.467 44.1354C112.122 43.7309 112.642 43.1916 113.027 42.5174C113.431 41.8239 113.653 41.0342 113.691 40.1481C113.73 39.4546 113.624 38.8382 113.374 38.2989C113.123 37.7403 112.748 37.3068 112.247 36.9986C111.765 36.6712 111.187 36.5074 110.513 36.5074C109.704 36.5074 108.972 36.7097 108.317 37.1142C107.662 37.5187 107.142 38.0677 106.757 38.7612C106.372 39.4546 106.16 40.254 106.121 41.1594C106.063 41.8528 106.16 42.4692 106.41 43.0086C106.661 43.5479 107.027 43.9717 107.508 44.2799C108.009 44.5688 108.596 44.7133 109.271 44.7133Z" fill="#014CCC"/>
<path d="M90.801 48.2384C89.4912 48.2384 88.3547 47.9494 87.3915 47.3716C86.4284 46.7744 85.6868 45.9654 85.1667 44.9445C84.6659 43.9043 84.454 42.7389 84.531 41.4483C84.5888 40.2348 84.8392 39.1175 85.2823 38.0966C85.7446 37.0564 86.361 36.1607 87.1315 35.4095C87.9213 34.6582 88.8266 34.0707 89.8475 33.647C90.8877 33.2039 91.9953 32.9824 93.1703 32.9824C94.4994 32.9824 95.6456 33.2713 96.6087 33.8492C97.5911 34.4271 98.3327 35.2265 98.8335 36.2474C99.3536 37.2491 99.5751 38.4241 99.4981 39.7725C99.4596 40.9667 99.2091 42.084 98.7468 43.1242C98.2845 44.1451 97.6585 45.0408 96.8687 45.8113C96.079 46.5818 95.164 47.1789 94.1238 47.6027C93.1029 48.0265 91.9953 48.2384 90.801 48.2384ZM91.35 44.7422C92.082 44.7422 92.7369 44.54 93.3148 44.1354C93.9119 43.7309 94.3839 43.1627 94.7306 42.4307C95.0966 41.6987 95.3085 40.8608 95.3663 39.9169C95.4048 39.1657 95.3085 38.5397 95.0773 38.0388C94.8654 37.538 94.5476 37.1527 94.1238 36.8831C93.7193 36.6134 93.2377 36.4786 92.6791 36.4786C91.9664 36.4786 91.3115 36.6904 90.7143 37.1142C90.1172 37.5187 89.6356 38.087 89.2696 38.819C88.9229 39.5317 88.7207 40.3696 88.6629 41.3327C88.6243 42.0455 88.711 42.6619 88.9229 43.1819C89.1541 43.6828 89.4815 44.068 89.9053 44.3377C90.3291 44.6074 90.8106 44.7422 91.35 44.7422Z" fill="#014CCC"/>
<path d="M74.1289 48.2384C72.819 48.2384 71.7114 47.988 70.8061 47.4871C69.92 46.967 69.2843 46.2254 68.8991 45.2623C68.5138 44.2799 68.4464 43.0856 68.6968 41.6795H72.7419C72.6456 42.2959 72.6456 42.8256 72.7419 43.2686C72.8383 43.7117 73.0405 44.0488 73.3487 44.2799C73.6762 44.5111 74.1096 44.6266 74.6489 44.6266C75.1883 44.6266 75.641 44.5207 76.007 44.3088C76.3922 44.0969 76.7004 43.7983 76.9316 43.4131C77.182 43.0086 77.3457 42.5463 77.4228 42.0262L79.9654 27.6659H84.0106L81.4679 42.0262C81.1212 44.0102 80.2833 45.5416 78.9541 46.6203C77.625 47.699 76.0166 48.2384 74.1289 48.2384Z" fill="#014CCC"/>
<path d="M61.2188 35.1251L61.6242 32.4163C61.6854 32.0069 61.3683 31.6388 60.9544 31.6388H3.7985C3.46383 31.6388 3.17935 31.8833 3.12901 32.2142L2.71683 34.923C2.65447 35.3328 2.97173 35.702 3.38633 35.702H60.5491C60.8844 35.702 61.1692 35.4567 61.2188 35.1251Z" fill="#014CCC"/>
<circle cx="138.49" cy="45.1828" r="2.25734" fill="#014CCC"/>
</svg>
