<svg width="200" height="86" viewBox="0 0 200 86" fill="none" xmlns="http://www.w3.org/2000/svg">
<path d="M78.9365 65.7887L79.3419 63.0799C79.4032 62.6705 79.0861 62.3025 78.6722 62.3025H21.5162C21.1816 62.3025 20.8971 62.547 20.8468 62.8778L20.4346 65.5866C20.3722 65.9965 20.6895 66.3657 21.1041 66.3657H78.2668C78.6021 66.3657 78.8869 66.1203 78.9365 65.7887Z" fill="white"/>
<path d="M163.101 45.6343L167.667 38.2375H166.8L163.564 24.7151H167.927L170.123 34.5102L175.699 24.7151H180.033L167.378 45.6343H163.101Z" fill="white"/>
<path d="M152.728 39.2776L155.531 23.5016C155.743 22.2688 156.119 21.2864 156.658 20.5544C157.217 19.8224 157.91 19.2927 158.738 18.9652C159.567 18.6378 160.501 18.474 161.541 18.474H163.333L162.726 21.9124H161.541C160.944 21.9124 160.491 22.0376 160.183 22.288C159.875 22.5192 159.673 22.9237 159.576 23.5016L156.774 39.2776H152.728ZM152.728 28.0957L153.306 24.7151H162.437L161.859 28.0957H152.728Z" fill="white"/>
<path d="M142.141 39.6244C140.793 39.6244 139.637 39.3547 138.674 38.8153C137.711 38.276 136.979 37.5151 136.478 36.5327C135.996 35.5503 135.794 34.4042 135.871 33.0944C135.91 31.8808 136.15 30.7539 136.593 29.7138C137.056 28.6543 137.682 27.7297 138.472 26.94C139.281 26.1309 140.215 25.5049 141.274 25.0618C142.334 24.5995 143.509 24.3684 144.799 24.3684C146.128 24.3684 147.255 24.6381 148.18 25.1774C149.124 25.7168 149.827 26.4584 150.289 27.4023C150.751 28.3269 150.954 29.3959 150.896 30.6095C150.896 31.014 150.848 31.4281 150.751 31.8519C150.674 32.2757 150.588 32.6609 150.491 33.0077H138.703L139.136 30.5517H146.88C146.957 29.9353 146.889 29.4152 146.677 28.9914C146.466 28.5484 146.148 28.2113 145.724 27.9801C145.319 27.749 144.838 27.6334 144.279 27.6334C143.624 27.6334 142.998 27.7875 142.401 28.0957C141.823 28.4039 141.322 28.8566 140.899 29.4537C140.475 30.0509 140.186 30.8117 140.032 31.7363L139.887 32.5743C139.753 33.3062 139.772 33.9515 139.945 34.5102C140.138 35.0688 140.465 35.5118 140.928 35.8393C141.39 36.1667 141.977 36.3305 142.69 36.3305C143.384 36.3305 143.981 36.186 144.482 35.8971C144.982 35.6081 145.387 35.2325 145.695 34.7702H149.827C149.384 35.6948 148.777 36.5231 148.007 37.2551C147.236 37.9871 146.35 38.5649 145.348 38.9887C144.347 39.4125 143.278 39.6244 142.141 39.6244Z" fill="white"/>
<path d="M125.168 39.6244C123.82 39.6244 122.664 39.3547 121.701 38.8153C120.738 38.276 120.006 37.5151 119.505 36.5327C119.023 35.5503 118.821 34.4042 118.898 33.0944C118.937 31.8808 119.178 30.7539 119.621 29.7138C120.083 28.6543 120.709 27.7297 121.499 26.94C122.308 26.1309 123.242 25.5049 124.301 25.0618C125.361 24.5995 126.536 24.3684 127.826 24.3684C129.156 24.3684 130.282 24.6381 131.207 25.1774C132.151 25.7168 132.854 26.4584 133.316 27.4023C133.779 28.3269 133.981 29.3959 133.923 30.6095C133.923 31.014 133.875 31.4281 133.779 31.8519C133.702 32.2757 133.615 32.6609 133.519 33.0077H121.73L122.163 30.5517H129.907C129.984 29.9353 129.916 29.4152 129.705 28.9914C129.493 28.5484 129.175 28.2113 128.751 27.9801C128.347 27.749 127.865 27.6334 127.306 27.6334C126.651 27.6334 126.025 27.7875 125.428 28.0957C124.85 28.4039 124.35 28.8566 123.926 29.4537C123.502 30.0509 123.213 30.8117 123.059 31.7363L122.914 32.5743C122.78 33.3062 122.799 33.9515 122.972 34.5102C123.165 35.0688 123.492 35.5118 123.955 35.8393C124.417 36.1667 125.004 36.3305 125.717 36.3305C126.411 36.3305 127.008 36.186 127.509 35.8971C128.009 35.6081 128.414 35.2325 128.722 34.7702H132.854C132.411 35.6948 131.804 36.5231 131.034 37.2551C130.263 37.9871 129.377 38.5649 128.375 38.9887C127.374 39.4125 126.305 39.6244 125.168 39.6244Z" fill="white"/>
<path d="M91.5804 39.2776L94.123 24.7151H97.677V26.6799C98.2356 25.9865 98.9002 25.4278 99.6707 25.0041C100.46 24.5803 101.347 24.3684 102.329 24.3684C103.042 24.3684 103.677 24.4647 104.236 24.6573C104.795 24.85 105.266 25.1389 105.652 25.5241C106.056 25.8901 106.364 26.3524 106.576 26.9111C107.231 26.1213 108.011 25.5049 108.917 25.0618C109.822 24.5995 110.785 24.3684 111.806 24.3684C113.058 24.3684 114.069 24.6284 114.84 25.1485C115.63 25.6494 116.169 26.391 116.458 27.3734C116.766 28.3365 116.795 29.5211 116.545 30.9273L115.071 39.2776H111.026L112.442 31.274C112.634 30.1568 112.548 29.2996 112.182 28.7025C111.816 28.0861 111.19 27.7779 110.304 27.7779C109.745 27.7779 109.225 27.9127 108.743 28.1824C108.281 28.4521 107.877 28.8373 107.53 29.3381C107.202 29.839 106.952 30.4457 106.779 31.1585L105.334 39.2776H101.318L102.733 31.274C102.926 30.1568 102.839 29.2996 102.473 28.7025C102.107 28.0861 101.472 27.7779 100.566 27.7779C99.9885 27.7779 99.4492 27.932 98.9483 28.2402C98.4668 28.5291 98.0526 28.9529 97.7059 29.5115C97.3592 30.0701 97.1184 30.7443 96.9835 31.5341L95.6255 39.2776H91.5804Z" fill="white"/>
<path d="M79.6163 39.6244C78.3642 39.6244 77.3625 39.3643 76.6113 38.8442C75.8793 38.3049 75.3881 37.5536 75.1377 36.5905C74.8873 35.6081 74.8777 34.4524 75.1088 33.1232L76.5824 24.7151H80.5987L79.2117 32.7476C79.0191 33.8649 79.0865 34.722 79.414 35.3192C79.7607 35.9163 80.4542 36.2149 81.4944 36.2149C82.13 36.2149 82.7175 36.0801 83.2569 35.8104C83.8155 35.5214 84.2874 35.1073 84.6727 34.5679C85.0579 34.0093 85.318 33.3448 85.4528 32.5743L86.8397 24.7151H90.8849L88.3422 39.2776H84.7883L84.8172 36.995C84.2393 37.7848 83.5073 38.4205 82.6212 38.902C81.7544 39.3836 80.7528 39.6244 79.6163 39.6244Z" fill="white"/>
<path d="M65.226 39.6244C63.8391 39.6244 62.6833 39.4029 61.7587 38.9598C60.8341 38.4975 60.1503 37.8811 59.7072 37.1106C59.2835 36.3401 59.1101 35.4733 59.1871 34.5102H63.2034C63.2034 34.9147 63.2901 35.271 63.4634 35.5792C63.6561 35.8874 63.9354 36.1378 64.3014 36.3305C64.6866 36.5038 65.1586 36.5905 65.7172 36.5905C66.218 36.5905 66.6418 36.5135 66.9885 36.3594C67.3352 36.2053 67.6049 36.003 67.7975 35.7526C68.0094 35.5022 68.125 35.2132 68.1443 34.8858C68.1635 34.5776 68.0672 34.3272 67.8553 34.1345C67.6627 33.9226 67.3738 33.7589 66.9885 33.6433C66.6225 33.5085 66.1891 33.3929 65.6883 33.2966C65.0141 33.1425 64.3592 32.9595 63.7235 32.7476C63.1071 32.5357 62.5581 32.2757 62.0765 31.9675C61.6142 31.64 61.2482 31.2548 60.9786 30.8117C60.7282 30.3494 60.6222 29.8004 60.6607 29.1648C60.6993 28.2402 60.9978 27.4215 61.5564 26.7088C62.1343 25.9768 62.9145 25.4086 63.8969 25.0041C64.8985 24.5803 66.035 24.3684 67.3063 24.3684C69.0978 24.3684 70.475 24.7825 71.4382 25.6108C72.4206 26.4199 72.8925 27.5082 72.854 28.8758H69.0111C68.9726 28.4328 68.7607 28.0861 68.3754 27.8357C67.9902 27.5852 67.4797 27.46 66.844 27.46C66.1891 27.46 65.6594 27.5949 65.2549 27.8646C64.8504 28.115 64.6385 28.4328 64.6192 28.8181C64.5999 29.0877 64.6962 29.3189 64.9081 29.5115C65.12 29.7041 65.4186 29.8679 65.8038 30.0027C66.2084 30.1375 66.7092 30.2628 67.3063 30.3783C68.0768 30.5517 68.7703 30.7443 69.3867 30.9562C70.0224 31.1681 70.5521 31.4281 70.9759 31.7363C71.4189 32.0445 71.7464 32.4202 71.9583 32.8632C72.1894 33.3062 72.2857 33.8456 72.2472 34.4813C72.2087 35.5214 71.8716 36.4364 71.2359 37.2262C70.6195 37.9967 69.7912 38.5938 68.751 39.0176C67.7108 39.4221 66.5358 39.6244 65.226 39.6244Z" fill="white"/>
<path d="M49.2066 39.6244C47.8582 39.6244 46.7024 39.3547 45.7393 38.8153C44.7762 38.276 44.0442 37.5151 43.5434 36.5327C43.0618 35.5503 42.8595 34.4042 42.9366 33.0944C42.9751 31.8808 43.2159 30.7539 43.6589 29.7138C44.1212 28.6543 44.7473 27.7297 45.537 26.94C46.3461 26.1309 47.2803 25.5049 48.3397 25.0618C49.3992 24.5995 50.5742 24.3684 51.8648 24.3684C53.1939 24.3684 54.3208 24.6381 55.2454 25.1774C56.1893 25.7168 56.8923 26.4584 57.3546 27.4023C57.817 28.3269 58.0192 29.3959 57.9614 30.6095C57.9614 31.014 57.9133 31.4281 57.8169 31.8519C57.7399 32.2757 57.6532 32.6609 57.5569 33.0077H45.7682L46.2016 30.5517H53.9452C54.0222 29.9353 53.9548 29.4152 53.7429 28.9914C53.531 28.5484 53.2132 28.2113 52.7894 27.9801C52.3849 27.749 51.9033 27.6334 51.3447 27.6334C50.6898 27.6334 50.0638 27.7875 49.4666 28.0957C48.8887 28.4039 48.3879 28.8566 47.9641 29.4537C47.5404 30.0509 47.2514 30.8117 47.0973 31.7363L46.9528 32.5743C46.818 33.3062 46.8373 33.9515 47.0106 34.5102C47.2033 35.0688 47.5307 35.5118 47.993 35.8393C48.4553 36.1667 49.0428 36.3305 49.7556 36.3305C50.449 36.3305 51.0461 36.186 51.547 35.8971C52.0478 35.6081 52.4523 35.2325 52.7605 34.7702H56.8923C56.4493 35.6948 55.8425 36.5231 55.072 37.2551C54.3015 37.9871 53.4154 38.5649 52.4138 38.9887C51.4121 39.4125 50.3431 39.6244 49.2066 39.6244Z" fill="white"/>
<path d="M25.0727 39.2776L28.6556 19.0519H36.2258C37.709 19.0519 38.9225 19.312 39.8664 19.832C40.8103 20.3329 41.5037 21.0071 41.9468 21.8546C42.3898 22.7022 42.5824 23.6364 42.5246 24.6573C42.4668 25.9865 42.0816 27.1615 41.3689 28.1824C40.6754 29.2033 39.7027 30.0027 38.4506 30.5806C37.1985 31.1392 35.7442 31.4185 34.0876 31.4185H30.5048L29.1179 39.2776H25.0727ZM35.7057 39.2776L33.1341 30.4072H37.3815L40.1553 39.2776H35.7057ZM31.0538 28.4713H34.4054C35.5805 28.4713 36.5147 28.1631 37.2082 27.5467C37.9209 26.9303 38.2965 26.0828 38.335 25.0041C38.3928 24.2336 38.1905 23.6172 37.7282 23.1548C37.2659 22.6733 36.5147 22.4325 35.4745 22.4325H32.0939L31.0538 28.4713Z" fill="white"/>
<path d="M145.799 66.7124C144.412 66.7124 143.257 66.4909 142.332 66.0478C141.407 65.5855 140.724 64.9691 140.281 64.1986C139.857 63.4281 139.683 62.5613 139.761 61.5982H143.777C143.777 62.0027 143.863 62.3591 144.037 62.6673C144.229 62.9755 144.509 63.2259 144.875 63.4185C145.26 63.5919 145.732 63.6785 146.291 63.6785C146.791 63.6785 147.215 63.6015 147.562 63.4474C147.909 63.2933 148.178 63.091 148.371 62.8406C148.583 62.5902 148.698 62.3013 148.718 61.9738C148.737 61.6656 148.641 61.4152 148.429 61.2226C148.236 61.0107 147.947 60.8469 147.562 60.7314C147.196 60.5965 146.762 60.481 146.262 60.3846C145.587 60.2305 144.933 60.0475 144.297 59.8357C143.68 59.6238 143.131 59.3637 142.65 59.0555C142.188 58.7281 141.822 58.3428 141.552 57.8998C141.302 57.4375 141.196 56.8885 141.234 56.2528C141.273 55.3282 141.571 54.5095 142.13 53.7968C142.708 53.0648 143.488 52.4966 144.47 52.0921C145.472 51.6683 146.608 51.4564 147.88 51.4564C149.671 51.4564 151.048 51.8706 152.012 52.6989C152.994 53.5079 153.466 54.5962 153.427 55.9639H149.584C149.546 55.5208 149.334 55.1741 148.949 54.9237C148.564 54.6733 148.053 54.5481 147.417 54.5481C146.762 54.5481 146.233 54.6829 145.828 54.9526C145.424 55.203 145.212 55.5208 145.193 55.9061C145.173 56.1758 145.27 56.4069 145.482 56.5995C145.693 56.7922 145.992 56.9559 146.377 57.0907C146.782 57.2256 147.283 57.3508 147.88 57.4664C148.65 57.6397 149.344 57.8323 149.96 58.0442C150.596 58.2561 151.125 58.5162 151.549 58.8244C151.992 59.1326 152.32 59.5082 152.532 59.9512C152.763 60.3943 152.859 60.9336 152.821 61.5693C152.782 62.6095 152.445 63.5244 151.809 64.3142C151.193 65.0847 150.365 65.6819 149.324 66.1056C148.284 66.5101 147.109 66.7124 145.799 66.7124Z" fill="white"/>
<path d="M130.015 66.7124C129.302 66.7124 128.666 66.6161 128.108 66.4235C127.549 66.2308 127.067 65.9708 126.663 65.6433C126.278 65.2966 125.97 64.921 125.738 64.5165L124.958 66.3657H121.375L125.045 45.5621H129.09L127.674 53.5946C128.233 52.9589 128.917 52.4484 129.726 52.0632C130.554 51.6587 131.498 51.4564 132.557 51.4564C133.752 51.4564 134.792 51.755 135.678 52.3521C136.564 52.93 137.238 53.7198 137.7 54.7214C138.163 55.7038 138.355 56.8307 138.278 58.102C138.24 59.2963 137.999 60.4135 137.556 61.4537C137.113 62.4939 136.516 63.4089 135.765 64.1986C135.013 64.9884 134.146 65.6048 133.164 66.0478C132.201 66.4909 131.151 66.7124 130.015 66.7124ZM129.697 63.1873C130.506 63.1873 131.238 62.9947 131.893 62.6095C132.548 62.205 133.068 61.6656 133.453 60.9914C133.858 60.298 134.079 59.5082 134.118 58.6221C134.156 57.9287 134.05 57.3123 133.8 56.7729C133.549 56.2143 133.174 55.7809 132.673 55.4727C132.191 55.1452 131.613 54.9815 130.939 54.9815C130.13 54.9815 129.398 55.1837 128.743 55.5883C128.088 55.9928 127.568 56.5417 127.183 57.2352C126.798 57.9287 126.586 58.7281 126.547 59.6334C126.49 60.3269 126.586 60.9433 126.836 61.4826C127.087 62.022 127.453 62.4457 127.934 62.7539C128.435 63.0429 129.023 63.1873 129.697 63.1873Z" fill="white"/>
<path d="M111.228 66.7124C109.918 66.7124 108.781 66.4235 107.818 65.8456C106.855 65.2484 106.113 64.4394 105.593 63.4185C105.092 62.3783 104.881 61.2129 104.958 59.9223C105.015 58.7088 105.266 57.5916 105.709 56.5706C106.171 55.5305 106.788 54.6348 107.558 53.8835C108.348 53.1323 109.253 52.5448 110.274 52.121C111.314 51.6779 112.422 51.4564 113.597 51.4564C114.926 51.4564 116.072 51.7454 117.035 52.3232C118.018 52.9011 118.759 53.7005 119.26 54.7214C119.78 55.7231 120.002 56.8981 119.925 58.2465C119.886 59.4408 119.636 60.558 119.173 61.5982C118.711 62.6191 118.085 63.5148 117.295 64.2853C116.505 65.0558 115.591 65.653 114.55 66.0767C113.529 66.5005 112.422 66.7124 111.228 66.7124ZM111.777 63.2162C112.509 63.2162 113.163 63.014 113.741 62.6095C114.338 62.205 114.81 61.6367 115.157 60.9047C115.523 60.1727 115.735 59.3348 115.793 58.391C115.831 57.6397 115.735 57.0137 115.504 56.5129C115.292 56.012 114.974 55.6268 114.55 55.3571C114.146 55.0874 113.664 54.9526 113.106 54.9526C112.393 54.9526 111.738 55.1645 111.141 55.5882C110.544 55.9928 110.062 56.561 109.696 57.293C109.349 58.0057 109.147 58.8436 109.089 59.8068C109.051 60.5195 109.138 61.1359 109.349 61.656C109.581 62.1568 109.908 62.542 110.332 62.8117C110.756 63.0814 111.237 63.2162 111.777 63.2162Z" fill="white"/>
<path d="M94.5553 66.7124C93.2454 66.7124 92.1378 66.462 91.2325 65.9612C90.3464 65.4411 89.7108 64.6995 89.3255 63.7363C88.9403 62.7539 88.8728 61.5597 89.1233 60.1535H93.1684C93.0721 60.7699 93.0721 61.2996 93.1684 61.7427C93.2647 62.1857 93.467 62.5228 93.7752 62.7539C94.1026 62.9851 94.536 63.1007 95.0754 63.1007C95.6147 63.1007 96.0674 62.9947 96.4334 62.7828C96.8187 62.5709 97.1269 62.2724 97.358 61.8871C97.6084 61.4826 97.7722 61.0203 97.8492 60.5002L100.392 46.1399H104.437L101.894 60.5002C101.548 62.4843 100.71 64.0156 99.3806 65.0943C98.0515 66.1731 96.443 66.7124 94.5553 66.7124Z" fill="white"/>
<path d="M81.6454 53.5991L82.0507 50.8903C82.112 50.4809 81.7949 50.1129 81.381 50.1129H24.2251C23.8904 50.1129 23.6059 50.3573 23.5556 50.6882L23.1434 53.397C23.081 53.8069 23.3983 54.1761 23.8129 54.1761H80.9756C81.3109 54.1761 81.5957 53.9307 81.6454 53.5991Z" fill="white"/>
<circle cx="158.917" cy="63.6569" r="2.25734" fill="white"/>
</svg>
