<svg width="160" height="49" viewBox="0 0 160 49" fill="none" xmlns="http://www.w3.org/2000/svg">
<path d="M58.5098 47.3147L58.9152 44.6059C58.9764 44.1965 58.6594 43.8285 58.2454 43.8285H1.08953C0.754857 43.8285 0.470375 44.0729 0.420031 44.4038L0.00785622 47.1126C-0.0545114 47.5225 0.262755 47.8917 0.677351 47.8917H57.8401C58.1754 47.8917 58.4602 47.6463 58.5098 47.3147Z" fill="white"/>
<path d="M142.675 27.1603L147.24 19.7634H146.373L143.137 6.24109H147.5L149.696 16.0361L155.272 6.24109H159.606L146.951 27.1603H142.675Z" fill="white"/>
<path d="M132.302 20.8036L135.104 5.02754C135.316 3.79473 135.692 2.81234 136.231 2.08036C136.79 1.34838 137.483 0.818661 138.312 0.491197C139.14 0.163732 140.074 0 141.114 0H142.906L142.299 3.43838H141.114C140.517 3.43838 140.065 3.56358 139.756 3.814C139.448 4.04515 139.246 4.44966 139.15 5.02754L136.347 20.8036H132.302ZM132.302 9.62167L132.88 6.24109H142.01L141.432 9.62167H132.302Z" fill="white"/>
<path d="M121.714 21.1503C120.366 21.1503 119.21 20.8807 118.247 20.3413C117.284 19.802 116.552 19.0411 116.051 18.0587C115.57 17.0763 115.367 15.9302 115.444 14.6203C115.483 13.4068 115.724 12.2799 116.167 11.2397C116.629 10.1803 117.255 9.25568 118.045 8.46592C118.854 7.65689 119.788 7.03085 120.848 6.58781C121.907 6.12551 123.082 5.89436 124.373 5.89436C125.702 5.89436 126.829 6.16404 127.753 6.70339C128.697 7.24274 129.4 7.98435 129.862 8.92822C130.325 9.85283 130.527 10.9219 130.469 12.1354C130.469 12.54 130.421 12.9541 130.325 13.3779C130.248 13.8017 130.161 14.1869 130.065 14.5336H118.276L118.709 12.0777H126.453C126.53 11.4613 126.463 10.9412 126.251 10.5174C126.039 10.0743 125.721 9.73725 125.297 9.5061C124.893 9.27495 124.411 9.15937 123.853 9.15937C123.198 9.15937 122.572 9.31347 121.974 9.62167C121.397 9.92988 120.896 10.3825 120.472 10.9797C120.048 11.5768 119.759 12.3377 119.605 13.2623L119.461 14.1002C119.326 14.8322 119.345 15.4775 119.518 16.0361C119.711 16.5947 120.039 17.0378 120.501 17.3652C120.963 17.6927 121.551 17.8564 122.263 17.8564C122.957 17.8564 123.554 17.712 124.055 17.423C124.556 17.1341 124.96 16.7585 125.268 16.2962H129.4C128.957 17.2208 128.35 18.0491 127.58 18.781C126.809 19.513 125.923 20.0909 124.922 20.5147C123.92 20.9385 122.851 21.1503 121.714 21.1503Z" fill="white"/>
<path d="M104.741 21.1503C103.393 21.1503 102.237 20.8807 101.274 20.3413C100.311 19.802 99.5791 19.0411 99.0783 18.0587C98.5967 17.0763 98.3945 15.9302 98.4715 14.6203C98.51 13.4068 98.7508 12.2799 99.1939 11.2397C99.6562 10.1803 100.282 9.25568 101.072 8.46592C101.881 7.65689 102.815 7.03085 103.875 6.58781C104.934 6.12551 106.109 5.89436 107.4 5.89436C108.729 5.89436 109.856 6.16404 110.78 6.70339C111.724 7.24274 112.427 7.98435 112.89 8.92822C113.352 9.85283 113.554 10.9219 113.496 12.1354C113.496 12.54 113.448 12.9541 113.352 13.3779C113.275 13.8017 113.188 14.1869 113.092 14.5336H101.303L101.737 12.0777H109.48C109.557 11.4613 109.49 10.9412 109.278 10.5174C109.066 10.0743 108.748 9.73725 108.324 9.5061C107.92 9.27495 107.438 9.15937 106.88 9.15937C106.225 9.15937 105.599 9.31347 105.002 9.62167C104.424 9.92988 103.923 10.3825 103.499 10.9797C103.075 11.5768 102.786 12.3377 102.632 13.2623L102.488 14.1002C102.353 14.8322 102.372 15.4775 102.546 16.0361C102.738 16.5947 103.066 17.0378 103.528 17.3652C103.99 17.6927 104.578 17.8564 105.29 17.8564C105.984 17.8564 106.581 17.712 107.082 17.423C107.583 17.1341 107.987 16.7585 108.295 16.2962H112.427C111.984 17.2208 111.377 18.0491 110.607 18.781C109.836 19.513 108.95 20.0909 107.949 20.5147C106.947 20.9385 105.878 21.1503 104.741 21.1503Z" fill="white"/>
<path d="M71.1537 20.8036L73.6963 6.24109H77.2503V8.20587C77.8089 7.51242 78.4735 6.9538 79.244 6.53003C80.0337 6.10625 80.9198 5.89436 81.9022 5.89436C82.6149 5.89436 83.2506 5.99067 83.8092 6.1833C84.3678 6.37592 84.8397 6.66486 85.225 7.05012C85.6295 7.41611 85.9377 7.87841 86.1496 8.43702C86.8045 7.64726 87.5847 7.03085 88.49 6.58781C89.3953 6.12551 90.3585 5.89436 91.3794 5.89436C92.6315 5.89436 93.6428 6.1544 94.4133 6.6745C95.203 7.17532 95.7424 7.91693 96.0313 8.89933C96.3395 9.86246 96.3684 11.0471 96.118 12.4533L94.6444 20.8036H90.5993L92.0151 12.8C92.2077 11.6828 92.121 10.8256 91.755 10.2284C91.389 9.61204 90.763 9.30384 89.8769 9.30384C89.3183 9.30384 88.7982 9.43868 88.3166 9.70836C87.8543 9.97803 87.4498 10.3633 87.1031 10.8641C86.7756 11.3649 86.5252 11.9717 86.3519 12.6844L84.9072 20.8036H80.8909L82.3067 12.8C82.4993 11.6828 82.4127 10.8256 82.0467 10.2284C81.6807 9.61204 81.045 9.30384 80.1397 9.30384C79.5618 9.30384 79.0224 9.45794 78.5216 9.76614C78.04 10.0551 77.6259 10.4789 77.2792 11.0375C76.9324 11.5961 76.6917 12.2703 76.5568 13.06L75.1988 20.8036H71.1537Z" fill="white"/>
<path d="M59.1895 21.1503C57.9375 21.1503 56.9358 20.8903 56.1846 20.3702C55.4526 19.8309 54.9614 19.0796 54.711 18.1165C54.4606 17.1341 54.4509 15.9783 54.6821 14.6492L56.1557 6.24109H60.1719L58.785 14.2736C58.5924 15.3908 58.6598 16.248 58.9873 16.8451C59.334 17.4423 60.0275 17.7409 61.0676 17.7409C61.7033 17.7409 62.2908 17.606 62.8302 17.3363C63.3888 17.0474 63.8607 16.6333 64.246 16.0939C64.6312 15.5353 64.8913 14.8707 65.0261 14.1002L66.413 6.24109H70.4582L67.9155 20.8036H64.3616L64.3904 18.521C63.8126 19.3108 63.0806 19.9464 62.1945 20.428C61.3277 20.9096 60.326 21.1503 59.1895 21.1503Z" fill="white"/>
<path d="M44.7993 21.1503C43.4123 21.1503 42.2566 20.9288 41.332 20.4858C40.4074 20.0235 39.7236 19.4071 39.2805 18.6366C38.8567 17.8661 38.6834 16.9993 38.7604 16.0361H42.7767C42.7767 16.4406 42.8634 16.797 43.0367 17.1052C43.2294 17.4134 43.5087 17.6638 43.8746 17.8564C44.2599 18.0298 44.7318 18.1165 45.2905 18.1165C45.7913 18.1165 46.2151 18.0394 46.5618 17.8853C46.9085 17.7312 47.1782 17.529 47.3708 17.2786C47.5827 17.0281 47.6983 16.7392 47.7175 16.4117C47.7368 16.1035 47.6405 15.8531 47.4286 15.6605C47.236 15.4486 46.947 15.2849 46.5618 15.1693C46.1958 15.0345 45.7624 14.9189 45.2616 14.8226C44.5874 14.6685 43.9324 14.4855 43.2968 14.2736C42.6804 14.0617 42.1314 13.8017 41.6498 13.4935C41.1875 13.166 40.8215 12.7807 40.5518 12.3377C40.3014 11.8754 40.1955 11.3264 40.234 10.6907C40.2725 9.76614 40.5711 8.94748 41.1297 8.23477C41.7076 7.50279 42.4877 6.93454 43.4701 6.53003C44.4718 6.10625 45.6083 5.89436 46.8796 5.89436C48.671 5.89436 50.0483 6.30851 51.0114 7.1368C51.9938 7.94583 52.4658 9.03416 52.4272 10.4018H48.5844C48.5458 9.95877 48.3339 9.61204 47.9487 9.36163C47.5634 9.11121 47.053 8.98601 46.4173 8.98601C45.7624 8.98601 45.2327 9.12085 44.8281 9.39052C44.4236 9.64094 44.2117 9.95877 44.1925 10.344C44.1732 10.6137 44.2695 10.8448 44.4814 11.0375C44.6933 11.2301 44.9919 11.3938 45.3771 11.5287C45.7816 11.6635 46.2825 11.7887 46.8796 11.9043C47.6501 12.0777 48.3436 12.2703 48.96 12.4822C49.5956 12.6941 50.1254 12.9541 50.5491 13.2623C50.9922 13.5705 51.3196 13.9461 51.5315 14.3892C51.7627 14.8322 51.859 15.3716 51.8205 16.0072C51.7819 17.0474 51.4449 17.9624 50.8092 18.7521C50.1928 19.5227 49.3645 20.1198 48.3243 20.5436C47.2841 20.9481 46.1091 21.1503 44.7993 21.1503Z" fill="white"/>
<path d="M28.7798 21.1503C27.4315 21.1503 26.2757 20.8807 25.3126 20.3413C24.3494 19.802 23.6175 19.0411 23.1166 18.0587C22.6351 17.0763 22.4328 15.9302 22.5099 14.6203C22.5484 13.4068 22.7892 12.2799 23.2322 11.2397C23.6945 10.1803 24.3206 9.25568 25.1103 8.46592C25.9194 7.65689 26.8536 7.03085 27.913 6.58781C28.9725 6.12551 30.1475 5.89436 31.4381 5.89436C32.7672 5.89436 33.8941 6.16404 34.8187 6.70339C35.7625 7.24274 36.4656 7.98435 36.9279 8.92822C37.3902 9.85283 37.5925 10.9219 37.5347 12.1354C37.5347 12.54 37.4865 12.9541 37.3902 13.3779C37.3132 13.8017 37.2265 14.1869 37.1302 14.5336H25.3415L25.7749 12.0777H33.5184C33.5955 11.4613 33.5281 10.9412 33.3162 10.5174C33.1043 10.0743 32.7865 9.73725 32.3627 9.5061C31.9582 9.27495 31.4766 9.15937 30.918 9.15937C30.2631 9.15937 29.637 9.31347 29.0399 9.62167C28.462 9.92988 27.9612 10.3825 27.5374 10.9797C27.1136 11.5768 26.8247 12.3377 26.6706 13.2623L26.5261 14.1002C26.3913 14.8322 26.4105 15.4775 26.5839 16.0361C26.7765 16.5947 27.104 17.0378 27.5663 17.3652C28.0286 17.6927 28.6161 17.8564 29.3288 17.8564C30.0223 17.8564 30.6194 17.712 31.1203 17.423C31.6211 17.1341 32.0256 16.7585 32.3338 16.2962H36.4656C36.0226 17.2208 35.4158 18.0491 34.6453 18.781C33.8748 19.513 32.9887 20.0909 31.9871 20.5147C30.9854 20.9385 29.9163 21.1503 28.7798 21.1503Z" fill="white"/>
<path d="M4.646 20.8036L8.22884 0.577881H15.799C17.2823 0.577881 18.4958 0.837926 19.4397 1.35802C20.3835 1.85884 21.077 2.53304 21.52 3.38059C21.9631 4.22814 22.1557 5.16238 22.0979 6.1833C22.0401 7.51242 21.6549 8.68744 20.9422 9.70836C20.2487 10.7293 19.2759 11.5287 18.0239 12.1066C16.7718 12.6652 15.3175 12.9445 13.6609 12.9445H10.0781L8.69114 20.8036H4.646ZM15.279 20.8036L12.7074 11.9332H16.9548L19.7286 20.8036H15.279ZM10.627 9.9973H13.9787C15.1537 9.9973 16.088 9.68909 16.7814 9.07269C17.4942 8.45629 17.8698 7.60873 17.9083 6.53003C17.9661 5.75952 17.7638 5.14312 17.3015 4.68082C16.8392 4.19925 16.088 3.95847 15.0478 3.95847H11.6672L10.627 9.9973Z" fill="white"/>
<path d="M125.373 48.2384C123.986 48.2384 122.83 48.0169 121.905 47.5738C120.981 47.1115 120.297 46.4951 119.854 45.7246C119.43 44.9541 119.257 44.0873 119.334 43.1241H123.35C123.35 43.5287 123.437 43.885 123.61 44.1932C123.803 44.5014 124.082 44.7518 124.448 44.9445C124.833 45.1178 125.305 45.2045 125.864 45.2045C126.365 45.2045 126.788 45.1275 127.135 44.9734C127.482 44.8193 127.752 44.617 127.944 44.3666C128.156 44.1162 128.272 43.8272 128.291 43.4998C128.31 43.1916 128.214 42.9412 128.002 42.7485C127.809 42.5366 127.52 42.3729 127.135 42.2573C126.769 42.1225 126.336 42.0069 125.835 41.9106C125.161 41.7565 124.506 41.5735 123.87 41.3616C123.254 41.1497 122.705 40.8897 122.223 40.5815C121.761 40.254 121.395 39.8688 121.125 39.4257C120.875 38.9634 120.769 38.4144 120.807 37.7788C120.846 36.8542 121.144 36.0355 121.703 35.3228C122.281 34.5908 123.061 34.0226 124.044 33.6181C125.045 33.1943 126.182 32.9824 127.453 32.9824C129.244 32.9824 130.622 33.3965 131.585 34.2248C132.567 35.0339 133.039 36.1222 133.001 37.4898H129.158C129.119 37.0468 128.907 36.7001 128.522 36.4497C128.137 36.1992 127.626 36.074 126.991 36.074C126.336 36.074 125.806 36.2089 125.402 36.4786C124.997 36.729 124.785 37.0468 124.766 37.432C124.747 37.7017 124.843 37.9329 125.055 38.1255C125.267 38.3181 125.565 38.4819 125.951 38.6167C126.355 38.7515 126.856 38.8767 127.453 38.9923C128.223 39.1657 128.917 39.3583 129.533 39.5702C130.169 39.7821 130.699 40.0421 131.123 40.3503C131.566 40.6585 131.893 41.0342 132.105 41.4772C132.336 41.9202 132.432 42.4596 132.394 43.0953C132.355 44.1354 132.018 45.0504 131.383 45.8402C130.766 46.6107 129.938 47.2078 128.898 47.6316C127.858 48.0361 126.682 48.2384 125.373 48.2384Z" fill="white"/>
<path d="M109.588 48.2384C108.875 48.2384 108.24 48.1421 107.681 47.9494C107.122 47.7568 106.641 47.4968 106.236 47.1693C105.851 46.8226 105.543 46.4469 105.312 46.0424L104.532 47.8916H100.949L104.618 27.088H108.663L107.248 35.1205C107.806 34.4849 108.49 33.9744 109.299 33.5892C110.127 33.1846 111.071 32.9824 112.131 32.9824C113.325 32.9824 114.365 33.281 115.251 33.8781C116.137 34.456 116.811 35.2457 117.274 36.2474C117.736 37.2298 117.929 38.3567 117.852 39.628C117.813 40.8223 117.572 41.9395 117.129 42.9797C116.686 44.0199 116.089 44.9348 115.338 45.7246C114.587 46.5144 113.72 47.1308 112.737 47.5738C111.774 48.0169 110.724 48.2384 109.588 48.2384ZM109.27 44.7133C110.079 44.7133 110.811 44.5207 111.466 44.1354C112.121 43.7309 112.641 43.1916 113.026 42.5174C113.431 41.8239 113.652 41.0342 113.691 40.1481C113.729 39.4546 113.623 38.8382 113.373 38.2989C113.123 37.7403 112.747 37.3068 112.246 36.9986C111.765 36.6712 111.187 36.5074 110.513 36.5074C109.704 36.5074 108.972 36.7097 108.317 37.1142C107.662 37.5187 107.142 38.0677 106.756 38.7612C106.371 39.4546 106.159 40.254 106.121 41.1594C106.063 41.8528 106.159 42.4692 106.41 43.0086C106.66 43.5479 107.026 43.9717 107.508 44.2799C108.008 44.5688 108.596 44.7133 109.27 44.7133Z" fill="white"/>
<path d="M90.8008 48.2384C89.491 48.2384 88.3545 47.9494 87.3913 47.3716C86.4282 46.7744 85.6866 45.9654 85.1665 44.9445C84.6657 43.9043 84.4538 42.7389 84.5308 41.4483C84.5886 40.2348 84.839 39.1175 85.2821 38.0966C85.7444 37.0564 86.3608 36.1607 87.1313 35.4095C87.9211 34.6582 88.8264 34.0707 89.8473 33.6469C90.8875 33.2039 91.9951 32.9824 93.1701 32.9824C94.4992 32.9824 95.6454 33.2713 96.6085 33.8492C97.5909 34.4271 98.3325 35.2265 98.8333 36.2474C99.3534 37.2491 99.5749 38.4241 99.4979 39.7725C99.4594 40.9667 99.2089 42.084 98.7466 43.1241C98.2843 44.1451 97.6583 45.0408 96.8685 45.8113C96.0788 46.5818 95.1638 47.1789 94.1236 47.6027C93.1027 48.0265 91.9951 48.2384 90.8008 48.2384ZM91.3498 44.7422C92.0818 44.7422 92.7367 44.54 93.3146 44.1354C93.9117 43.7309 94.3837 43.1627 94.7304 42.4307C95.0964 41.6987 95.3083 40.8608 95.3661 39.9169C95.4046 39.1657 95.3083 38.5396 95.0771 38.0388C94.8652 37.538 94.5474 37.1527 94.1236 36.8831C93.7191 36.6134 93.2375 36.4786 92.6789 36.4786C91.9662 36.4786 91.3113 36.6904 90.7141 37.1142C90.117 37.5187 89.6354 38.087 89.2694 38.819C88.9227 39.5317 88.7205 40.3696 88.6627 41.3327C88.6241 42.0454 88.7108 42.6618 88.9227 43.1819C89.1539 43.6828 89.4813 44.068 89.9051 44.3377C90.3289 44.6074 90.8105 44.7422 91.3498 44.7422Z" fill="white"/>
<path d="M74.1286 48.2384C72.8187 48.2384 71.7111 47.988 70.8058 47.4871C69.9197 46.967 69.284 46.2254 68.8988 45.2623C68.5135 44.2799 68.4461 43.0856 68.6965 41.6795H72.7417C72.6454 42.2959 72.6454 42.8256 72.7417 43.2686C72.838 43.7117 73.0403 44.0488 73.3485 44.2799C73.6759 44.5111 74.1093 44.6266 74.6487 44.6266C75.188 44.6266 75.6407 44.5207 76.0067 44.3088C76.3919 44.0969 76.7001 43.7983 76.9313 43.4131C77.1817 43.0086 77.3454 42.5463 77.4225 42.0262L79.9652 27.6659H84.0103L81.4676 42.0262C81.1209 44.0102 80.283 45.5416 78.9539 46.6203C77.6248 47.699 76.0163 48.2384 74.1286 48.2384Z" fill="white"/>
<path d="M61.2186 35.1251L61.624 32.4163C61.6853 32.0069 61.3682 31.6388 60.9543 31.6388H3.79833C3.46367 31.6388 3.17918 31.8833 3.12884 32.2142L2.71667 34.923C2.6543 35.3328 2.97156 35.702 3.38616 35.702H60.5489C60.8842 35.702 61.169 35.4567 61.2186 35.1251Z" fill="white"/>
<circle cx="138.49" cy="45.1828" r="2.25734" fill="white"/>
</svg>
